<svg width="24" height="24" viewBox="0 0 24 24" fill="none" xmlns="http://www.w3.org/2000/svg">
<g clip-path="url(#clip0_224_2010)">
<path d="M11.9999 23.2045C18.188 23.2045 23.2044 18.1881 23.2044 12.0001C23.2044 5.81205 18.188 0.795654 11.9999 0.795654C5.81199 0.795654 0.795593 5.81205 0.795593 12.0001C0.795593 18.1881 5.81199 23.2045 11.9999 23.2045Z" fill="#EC6F7C"/>
<path d="M11.9999 20.1487C14.7073 20.1494 17.3235 19.1697 19.3644 17.3909C21.4054 15.612 22.7334 13.1543 23.1025 10.4722C23.3089 11.9924 23.201 13.5387 22.7852 15.0155C22.3695 16.4923 21.6549 17.8679 20.6858 19.0572C19.7166 20.2464 18.5136 21.2242 17.1513 21.9294C15.789 22.6347 14.2962 23.0527 12.7657 23.1576C11.235 23.2624 9.6993 23.0519 8.2534 22.5388C6.8076 22.0259 5.4825 21.2214 4.3603 20.1753C3.2381 19.1293 2.3426 17.864 1.7295 16.4577C1.1163 15.0515 0.798404 13.5343 0.795604 12.0001C0.794904 11.489 0.829004 10.9787 0.897504 10.4722C1.2667 13.1544 2.5945 15.6121 4.6355 17.3909C6.6765 19.1697 9.2926 20.1494 11.9999 20.1487Z" fill="#FF9A9A"/>
<path d="M11.9999 23.2045C18.188 23.2045 23.2044 18.1881 23.2044 12.0001C23.2044 5.81205 18.188 0.795654 11.9999 0.795654C5.81199 0.795654 0.795593 5.81205 0.795593 12.0001C0.795593 18.1881 5.81199 23.2045 11.9999 23.2045Z" stroke="#191919" stroke-linecap="round" stroke-linejoin="round"/>
<path d="M19.1304 10.9813C19.1304 10.7112 19.023 10.4521 18.832 10.2611C18.6411 10.0702 18.382 9.96267 18.1119 9.96267H14.0375V5.88837C14.0375 5.61827 13.9302 5.35917 13.7392 5.16817C13.5482 4.97717 13.289 4.86987 13.0189 4.86987H10.9818C10.7117 4.86987 10.4525 4.97717 10.2615 5.16817C10.0705 5.35917 9.9632 5.61827 9.9632 5.88837V9.96267H5.8889C5.6187 9.96267 5.3596 10.0702 5.1686 10.2611C4.9776 10.4521 4.8703 10.7112 4.8703 10.9813V13.0185C4.8703 13.2886 4.9776 13.5477 5.1686 13.7387C5.3596 13.9297 5.6187 14.0371 5.8889 14.0371H9.9632V18.1114C9.9632 18.3816 10.0705 18.6407 10.2615 18.8317C10.4525 19.0226 10.7116 19.1299 10.9818 19.1299H13.0189C13.289 19.1299 13.5481 19.0226 13.7392 18.8317C13.9302 18.6407 14.0375 18.3816 14.0375 18.1114V14.0371H18.1119C18.382 14.0371 18.6411 13.9297 18.832 13.7387C19.023 13.5477 19.1304 13.2886 19.1304 13.0185V10.9813Z" fill="white" stroke="#191919" stroke-linecap="round" stroke-linejoin="round"/>
</g>
<defs>
<clipPath id="clip0_224_2010">
<rect width="24" height="24" fill="white"/>
</clipPath>
</defs>
</svg>
