<svg width="30" height="30" viewBox="0 0 30 30" fill="none" xmlns="http://www.w3.org/2000/svg">
<g clip-path="url(#clip0_203_1057)">
<path d="M17.9866 6.52153V17.9852C17.9866 18.3024 17.8606 18.6064 17.6365 18.8306C17.4123 19.0547 17.1083 19.1806 16.7913 19.1806H2.44664C2.12959 19.1806 1.82553 19.0547 1.60136 18.8306C1.37718 18.6064 1.25127 18.3024 1.25127 17.9852V6.52153C1.24963 6.35077 1.29074 6.18234 1.37074 6.03149H17.8671C17.9473 6.18234 17.9883 6.35077 17.9866 6.52153Z" fill="#FFBC44"/>
<path d="M17.8673 6.03159H1.37085C1.42075 5.901 1.49827 5.7827 1.59807 5.6849L5.68629 1.59669C5.90952 1.37685 6.2096 1.25246 6.52302 1.25H12.7151C13.0285 1.25246 13.3286 1.37685 13.5519 1.59669L17.6401 5.6849C17.7399 5.7827 17.8174 5.901 17.8673 6.03159Z" fill="#FFDDA1"/>
<path d="M10.8143 19.1807H2.44658C2.12953 19.1807 1.82547 19.0549 1.6013 18.8306C1.37712 18.6065 1.25122 18.3025 1.25122 17.9854V6.52761C1.25122 6.21067 1.37725 5.90663 1.60142 5.68256L5.68248 1.60149C5.79341 1.49023 5.92506 1.40191 6.07006 1.34159C6.21506 1.28127 6.3706 1.25024 6.52766 1.25H12.7101C13.0272 1.25011 13.3311 1.37602 13.5554 1.60031L17.6362 5.68128C17.8605 5.90545 17.9865 6.2095 17.9866 6.52644V13.2039" stroke="#838282" stroke-linecap="round" stroke-linejoin="round"/>
<path d="M17.8795 6.03149H1.35925" stroke="#838282" stroke-linecap="round" stroke-linejoin="round"/>
<path d="M9.61853 1.25V6.03159" stroke="#838282" stroke-linecap="round" stroke-linejoin="round"/>
<path d="M22.4163 14.9145L24.256 19.182H27.8349C28.0159 19.1749 28.1944 19.2239 28.3465 19.3222C28.4984 19.4204 28.6164 19.5632 28.6843 19.731C28.7519 19.8989 28.7661 20.0834 28.7251 20.2598C28.6839 20.436 28.5893 20.5952 28.4541 20.7157L25.3461 23.4843L27.0675 27.4445C27.1431 27.6257 27.16 27.8259 27.1156 28.0172C27.0715 28.2084 26.9685 28.3809 26.8211 28.5104C26.6736 28.64 26.4893 28.72 26.294 28.7395C26.0986 28.7589 25.9023 28.7165 25.7324 28.6184L21.5795 26.2743L17.4195 28.6244C17.2496 28.7225 17.0531 28.7648 16.8579 28.7455C16.6626 28.7262 16.4783 28.646 16.3308 28.5164C16.1834 28.3869 16.0804 28.2143 16.0363 28.023C15.9919 27.8319 16.0088 27.6317 16.0844 27.4505L17.8021 23.4843L14.6941 20.7157C14.5583 20.5959 14.4628 20.4369 14.4209 20.2608C14.3789 20.0845 14.3925 19.8995 14.4599 19.7315C14.527 19.5633 14.6449 19.4202 14.7968 19.3215C14.9488 19.2229 15.1275 19.1738 15.3085 19.1808H18.8948L20.7368 14.9133C20.8186 14.7612 20.9401 14.634 21.0885 14.5455C21.2366 14.4569 21.4063 14.41 21.5789 14.41C21.7516 14.41 21.9211 14.4569 22.0694 14.5455C22.2178 14.634 22.3393 14.7612 22.4211 14.9133L22.4163 14.9145Z" fill="#FFEF5E"/>
<path d="M24.2564 19.1808L22.4166 14.9132C22.3347 14.761 22.2134 14.634 22.0649 14.5454C21.9167 14.4569 21.7471 14.41 21.5745 14.41C21.4017 14.41 21.2322 14.4569 21.084 14.5454C20.9356 14.634 20.8141 14.761 20.7322 14.9132L18.8902 19.1808H15.3041C15.1234 19.174 14.945 19.2234 14.7932 19.3219C14.6416 19.4204 14.5241 19.5634 14.4569 19.7313C14.3895 19.8992 14.3759 20.0838 14.4175 20.2597C14.4591 20.4358 14.5542 20.5945 14.6896 20.7145L17.7976 23.4829L16.0799 27.4422C15.9947 27.6539 15.9905 27.8897 16.068 28.1043L24.9975 19.1808H24.2564Z" fill="#FFF9BF"/>
<path d="M22.4163 14.9145L24.256 19.182H27.8349C28.0159 19.1749 28.1944 19.2239 28.3465 19.3222C28.4984 19.4204 28.6164 19.5632 28.6843 19.731C28.7519 19.8989 28.7661 20.0834 28.7251 20.2598C28.6839 20.436 28.5893 20.5952 28.4541 20.7157L25.3461 23.4843L27.0675 27.4445C27.1431 27.6257 27.16 27.8259 27.1156 28.0172C27.0715 28.2084 26.9685 28.3809 26.8211 28.5104C26.6736 28.64 26.4893 28.72 26.294 28.7395C26.0986 28.7589 25.9023 28.7165 25.7324 28.6184L21.5795 26.2743L17.4195 28.6244C17.2496 28.7225 17.0531 28.7648 16.8579 28.7455C16.6626 28.7262 16.4783 28.646 16.3308 28.5164C16.1834 28.3869 16.0804 28.2143 16.0363 28.023C15.9919 27.8319 16.0088 27.6317 16.0844 27.4505L17.8021 23.4843L14.6941 20.7157C14.5583 20.5959 14.4628 20.4369 14.4209 20.2608C14.3789 20.0845 14.3925 19.8995 14.4599 19.7315C14.527 19.5633 14.6449 19.4202 14.7968 19.3215C14.9488 19.2229 15.1275 19.1738 15.3085 19.1808H18.8948L20.7368 14.9133C20.8186 14.7612 20.9401 14.634 21.0885 14.5455C21.2366 14.4569 21.4063 14.41 21.5789 14.41C21.7516 14.41 21.9211 14.4569 22.0694 14.5455C22.2178 14.634 22.3393 14.7612 22.4211 14.9133L22.4163 14.9145Z" stroke="#838282" stroke-linecap="round" stroke-linejoin="round"/>
</g>
<defs>
<clipPath id="clip0_203_1057">
<rect width="30" height="30" fill="white"/>
</clipPath>
</defs>
</svg>
