<svg width="30" height="30" viewBox="0 0 30 30" fill="none" xmlns="http://www.w3.org/2000/svg">
<path d="M7.8258 4.23909L3.57765 2.1156C3.3954 2.02454 3.19291 1.98155 2.98938 1.99071C2.78586 1.99989 2.58806 2.0609 2.41475 2.16799C2.24142 2.27506 2.09835 2.42465 1.99907 2.60256C1.89981 2.78047 1.84763 2.98079 1.84753 3.18452V4.02746C1.84768 4.26637 1.91941 4.49977 2.05346 4.69754C2.18751 4.89531 2.37773 5.04839 2.5996 5.13702L4.83667 6.03257L4.09536 6.52757C3.96001 6.6177 3.84447 6.73449 3.7558 6.8708C3.66713 7.0071 3.6072 7.16007 3.57967 7.32034C3.55213 7.4806 3.55758 7.64479 3.59568 7.80287C3.63377 7.96096 3.70372 8.10961 3.80123 8.23975L4.47797 9.14127C4.58935 9.28976 4.73376 9.41029 4.89978 9.4933C5.06581 9.57631 5.24887 9.61954 5.4345 9.61954L7.8258 8.96431V4.23909Z" fill="#C2F3FF"/>
<path d="M22.1741 4.23909L26.4223 2.1156C26.6045 2.02454 26.807 1.98155 27.0105 1.99071C27.214 1.99989 27.4119 2.0609 27.5851 2.16799C27.7585 2.27506 27.9015 2.42465 28.0008 2.60256C28.1001 2.78047 28.1523 2.98079 28.1524 3.18452V4.02746C28.1523 4.26637 28.0805 4.49977 27.9464 4.69754C27.8124 4.89531 27.6221 5.04839 27.4003 5.13702L25.1633 6.03257L25.9045 6.52757C26.0399 6.6177 26.1554 6.73449 26.2441 6.8708C26.3328 7.0071 26.3926 7.16007 26.4203 7.32034C26.4478 7.4806 26.4423 7.64479 26.4043 7.80287C26.3661 7.96096 26.2961 8.10961 26.1986 8.23975L25.5219 9.14127C25.4105 9.28976 25.2661 9.41029 25.1001 9.4933C24.9341 9.57631 24.751 9.61954 24.5654 9.61954L22.1741 8.96431V4.23909Z" fill="#C2F3FF"/>
<path d="M20.9781 1.25H9.02159C8.70448 1.25 8.40035 1.37597 8.17613 1.6002C7.9519 1.82442 7.82593 2.12855 7.82593 2.44565V10.8152C7.82593 10.9723 7.85685 11.1277 7.91694 11.2728C7.97703 11.4179 8.0651 11.5497 8.17613 11.6607C8.28715 11.7717 8.41897 11.8598 8.56403 11.9199C8.70909 11.98 8.86457 12.0109 9.02159 12.0109H20.9781C21.1351 12.0109 21.2906 11.98 21.4356 11.9199C21.5808 11.8598 21.7125 11.7717 21.8236 11.6607C21.9346 11.5497 22.0226 11.4179 22.0828 11.2728C22.1429 11.1277 22.1738 10.9723 22.1738 10.8152V2.44565C22.1738 2.12855 22.0478 1.82442 21.8236 1.6002C21.5994 1.37597 21.2953 1.25 20.9781 1.25Z" fill="#E3E3E3"/>
<path d="M9.02159 1.25C8.70448 1.25 8.40035 1.37597 8.17613 1.6002C7.9519 1.82442 7.82593 2.12855 7.82593 2.44565V10.8152C7.82593 10.9723 7.85685 11.1277 7.91694 11.2728C7.97703 11.4179 8.0651 11.5497 8.17613 11.6607C8.28715 11.7717 8.41897 11.8598 8.56403 11.9199C8.70909 11.98 8.86457 12.0109 9.02159 12.0109H10.0092L20.7701 1.25H9.02159Z" fill="white"/>
<path d="M20.9781 1.25H9.02159C8.70448 1.25 8.40035 1.37597 8.17613 1.6002C7.9519 1.82442 7.82593 2.12855 7.82593 2.44565V10.8152C7.82593 10.9723 7.85685 11.1277 7.91694 11.2728C7.97703 11.4179 8.0651 11.5497 8.17613 11.6607C8.28715 11.7717 8.41897 11.8598 8.56403 11.9199C8.70909 11.98 8.86457 12.0109 9.02159 12.0109H20.9781C21.1351 12.0109 21.2906 11.98 21.4356 11.9199C21.5808 11.8598 21.7125 11.7717 21.8236 11.6607C21.9346 11.5497 22.0226 11.4179 22.0828 11.2728C22.1429 11.1277 22.1738 10.9723 22.1738 10.8152V2.44565C22.1738 2.12855 22.0478 1.82442 21.8236 1.6002C21.5994 1.37597 21.2953 1.25 20.9781 1.25Z" stroke="#838282" stroke-linecap="round" stroke-linejoin="round"/>
<path d="M8.22815 1.55122L14.283 6.0923C14.4899 6.24753 14.7416 6.33144 15.0004 6.33144C15.259 6.33144 15.5107 6.24753 15.7177 6.0923L21.7725 1.54883" stroke="#838282" stroke-linecap="round" stroke-linejoin="round"/>
<path d="M15 17.9891V28.75" stroke="#838282" stroke-linecap="round" stroke-linejoin="round"/>
<path d="M11.413 15.5979V23.9674" stroke="#838282" stroke-linecap="round" stroke-linejoin="round"/>
<path d="M18.587 15.5979V23.9674" stroke="#838282" stroke-linecap="round" stroke-linejoin="round"/>
<path d="M22.1741 4.23909L26.4223 2.1156C26.6045 2.02454 26.807 1.98155 27.0105 1.99071C27.214 1.99989 27.4119 2.0609 27.5851 2.16799C27.7585 2.27506 27.9015 2.42465 28.0008 2.60256C28.1001 2.78047 28.1523 2.98079 28.1524 3.18452V4.02746C28.1523 4.26637 28.0805 4.49977 27.9464 4.69754C27.8124 4.89531 27.6221 5.04839 27.4003 5.13702L25.1633 6.03257L25.9045 6.52757C26.0399 6.6177 26.1554 6.73449 26.2441 6.8708C26.3328 7.0071 26.3926 7.16007 26.4203 7.32034C26.4478 7.4806 26.4423 7.64479 26.4043 7.80287C26.3661 7.96096 26.2961 8.10961 26.1986 8.23975L25.5219 9.14127C25.4105 9.28976 25.2661 9.41029 25.1001 9.4933C24.9341 9.57631 24.751 9.61954 24.5654 9.61954" stroke="#838282" stroke-linecap="round" stroke-linejoin="round"/>
<path d="M7.8258 4.23909L3.57765 2.1156C3.3954 2.02454 3.19291 1.98155 2.98938 1.99071C2.78586 1.99989 2.58806 2.0609 2.41475 2.16799C2.24142 2.27506 2.09835 2.42465 1.99907 2.60256C1.89981 2.78047 1.84763 2.98079 1.84753 3.18452V4.02746C1.84768 4.26637 1.91941 4.49977 2.05346 4.69754C2.18751 4.89531 2.37773 5.04839 2.5996 5.13702L4.83667 6.03257L4.09536 6.52757C3.96001 6.6177 3.84447 6.73449 3.7558 6.8708C3.66713 7.0071 3.6072 7.16007 3.57967 7.32034C3.55213 7.4806 3.55758 7.64479 3.59568 7.80287C3.63377 7.96096 3.70372 8.10961 3.80123 8.23975L4.47797 9.14127C4.58935 9.28976 4.73376 9.41029 4.89978 9.4933C5.06581 9.57631 5.24887 9.61954 5.4345 9.61954" stroke="#838282" stroke-linecap="round" stroke-linejoin="round"/>
</svg>
