<svg width="30" height="30" viewBox="0 0 30 30" fill="none" xmlns="http://www.w3.org/2000/svg">
<path d="M26.4044 3.60973C26.4044 3.60973 26.4164 4.29314 26.4164 5.40818C26.4644 10.6956 26.2725 25.7906 22.8075 25.7906C18.6111 25.7906 22.208 20.9947 19.2106 20.9947H10.2423C11.5732 14.3405 11.4413 3.60973 11.4413 3.60973C11.4413 3.60973 11.4772 1.81128 12.6762 1.81128H27.6274C26.4284 1.81128 26.4044 3.60973 26.4044 3.60973Z" fill="white"/>
<path d="M27.627 1.81128H25.2746C25.2027 9.03985 20.7941 18.7347 14.0966 20.9947H19.2102C22.2077 20.9947 18.6107 25.7906 22.8071 25.7906C26.2722 25.7906 26.464 10.6956 26.4161 5.40818C26.4161 4.29314 26.4041 3.60973 26.4041 3.60973C26.4041 3.60973 26.4281 1.81128 27.627 1.81128Z" fill="#E3E3E3"/>
<path d="M26.4044 3.60973C26.4044 3.60973 26.4164 4.29314 26.4164 5.40818C26.4644 10.6956 26.2725 25.7906 22.8075 25.7906C18.6111 25.7906 22.208 20.9947 19.2106 20.9947H10.2423C11.5732 14.3405 11.4413 3.60973 11.4413 3.60973C11.4413 3.60973 11.4772 1.81128 12.6762 1.81128H27.6274C26.4284 1.81128 26.4044 3.60973 26.4044 3.60973Z" stroke="#838282" stroke-linecap="round" stroke-linejoin="round"/>
<path d="M15.0396 6.60706H17.4376" stroke="#838282" stroke-linecap="round" stroke-linejoin="round"/>
<path d="M15.3406 13.801H22.2346" stroke="#838282" stroke-linecap="round" stroke-linejoin="round"/>
<path d="M15.3406 10.2041H22.2346" stroke="#838282" stroke-linecap="round" stroke-linejoin="round"/>
<path d="M14.4409 17.3978H21.6347" stroke="#838282" stroke-linecap="round" stroke-linejoin="round"/>
<path d="M28.7424 4.06533C28.7613 4.23354 28.7444 4.40384 28.6926 4.56503C28.641 4.72622 28.5559 4.87464 28.4426 5.00053C28.3329 5.12843 28.1968 5.23105 28.0436 5.30142C27.8905 5.37179 27.724 5.4082 27.5554 5.40818H26.4164C26.4164 4.29314 26.4044 3.60973 26.4044 3.60973C26.4044 3.60973 26.4284 1.81128 27.6274 1.81128C28.3348 1.81128 28.6225 3.04622 28.7424 4.06533Z" fill="#B2B2B2" stroke="#838282" stroke-linecap="round" stroke-linejoin="round"/>
<path d="M19.2105 20.9949C17.3761 20.9949 18.0116 23.7045 17.8077 25.7907C17.6879 27.1096 17.2322 28.1886 15.6136 28.1886H1.25C5.44639 28.1886 1.84949 20.9949 4.8469 20.9949H19.2105Z" fill="white" stroke="#838282" stroke-linecap="round" stroke-linejoin="round"/>
<path d="M22.8074 25.7907H17.8076C18.0115 23.7045 17.376 20.9949 19.2104 20.9949C22.2079 20.9949 18.6109 25.7907 22.8074 25.7907Z" fill="#B2B2B2" stroke="#838282" stroke-linecap="round" stroke-linejoin="round"/>
</svg>
